<?xml version="1.0" encoding="utf-8"?>
<!-- Generator: Adobe Illustrator 17.1.0, SVG Export Plug-In . SVG Version: 6.00 Build 0)  -->
<!DOCTYPE svg PUBLIC "-//W3C//DTD SVG 1.1//EN" "http://www.w3.org/Graphics/SVG/1.1/DTD/svg11.dtd">
<svg version="1.1" xmlns="http://www.w3.org/2000/svg" xmlns:xlink="http://www.w3.org/1999/xlink" x="0px" y="0px"
	 viewBox="0 0 2604 1800" enable-background="new 0 0 2604 1800" xml:space="preserve">
<g id="Layer_1" display="none">
	<g display="inline">
		
			<image overflow="visible" width="3000" height="3000" xlink:href="DAA59E19E7BBB8F4.png"  transform="matrix(0.9999 0 0 0.9999 -220 -560)">
		</image>
	</g>
	
		<text transform="matrix(1 0 0 1 354.6372 1365.084)" display="inline" fill="#FFFFFF" font-family="'BebasNeue'" font-size="732.3618">COLUMBIA</text>
</g>
<g id="Layer_2">
	<rect x="54.333" y="81" fill="#FFFFFF" width="88.666" height="1617"/>
	<rect x="54.333" y="1609.334" fill="#FFFFFF" width="1617" height="88.666"/>
	<rect x="54.333" y="81" fill="#FFFFFF" width="1617" height="88.666"/>
	<rect x="1582.668" y="81.5" fill="#FFFFFF" width="88.666" height="358.614"/>
	<rect x="1582.668" y="1433.064" fill="#FFFFFF" width="88.666" height="264.935"/>
	<g>
		<path fill="#FFFFFF" d="M387.102,793.042h-46.541V496.875h46.541v126.929h52.887V496.875h47.387v296.167h-47.387V666.113h-52.887
			V793.042z"/>
		<path fill="#FFFFFF" d="M565.645,496.875v228.472c0,21.155,9.308,28.771,24.116,28.771s24.116-7.616,24.116-28.771V496.875h44.002
			v225.51c0,47.387-23.693,74.465-69.388,74.465s-69.388-27.078-69.388-74.465v-225.51H565.645z"/>
		<path fill="#FFFFFF" d="M788.191,707.153l31.732-210.278h64.733v296.167h-44.002V580.647L808.5,793.042h-44.002l-34.693-209.433
			v209.433h-40.617V496.875h64.733L788.191,707.153z"/>
		<path fill="#FFFFFF" d="M1069.123,793.042h-46.963l-8.039-53.733h-57.118l-8.039,53.733H906.23l47.387-296.167h68.119
			L1069.123,793.042z M962.926,699.114h44.848L985.35,549.338L962.926,699.114z"/>
		<path fill="#FFFFFF" d="M1132.164,578.532v214.51h-41.887V496.875h58.388l47.81,177.277V496.875h41.464v296.167h-47.811
			L1132.164,578.532z"/>
		<path fill="#FFFFFF" d="M1333.977,493.49c45.271,0,68.542,27.078,68.542,74.465v9.308h-44.002v-12.27
			c0-21.154-8.463-29.193-23.271-29.193c-14.809,0-23.271,8.039-23.271,29.193c0,60.926,90.966,72.35,90.966,156.969
			c0,47.387-23.693,74.465-69.388,74.465s-69.388-27.078-69.388-74.465v-18.193h44.002v21.155c0,21.154,9.308,28.771,24.116,28.771
			s24.116-7.616,24.116-28.771c0-60.926-90.966-72.35-90.966-156.969C1265.435,520.568,1288.705,493.49,1333.977,493.49z"/>
		<path fill="#FFFFFF" d="M1491.367,567.955c0-47.387,24.962-74.465,70.657-74.465c45.693,0,70.656,27.078,70.656,74.465v154.007
			c0,47.387-24.963,74.465-70.656,74.465c-45.695,0-70.657-27.078-70.657-74.465V567.955z M1537.907,724.923
			c0,21.154,9.309,29.193,24.117,29.193c14.808,0,24.116-8.039,24.116-29.193V564.993c0-21.154-9.309-29.193-24.116-29.193
			c-14.809,0-24.117,8.039-24.117,29.193V724.923z"/>
		<path fill="#FFFFFF" d="M1709.261,628.458h60.08v42.31h-60.08v122.274h-46.54V496.875h123.121v42.31h-76.581V628.458z"/>
	</g>
	<g>
		<path fill="#FFFFFF" d="M582.555,1168.854v68.109c0,82.025-41.012,128.896-120.107,128.896
			c-79.095,0-120.107-46.871-120.107-128.896V970.384c0-82.024,41.012-128.896,120.107-128.896
			c79.095,0,120.107,46.871,120.107,128.896v49.801H506.39v-54.927c0-36.618-16.112-50.533-41.745-50.533
			c-25.632,0-41.745,13.915-41.745,50.533v276.832c0,36.618,16.112,49.801,41.745,49.801c25.633,0,41.745-13.183,41.745-49.801
			v-73.236H582.555z"/>
		<path fill="#FFFFFF" d="M625.022,970.384c0-82.024,43.209-128.896,122.304-128.896c79.095,0,122.304,46.871,122.304,128.896
			v266.579c0,82.025-43.209,128.896-122.304,128.896c-79.095,0-122.304-46.871-122.304-128.896V970.384z M705.582,1242.09
			c0,36.618,16.112,50.533,41.745,50.533c25.633,0,41.745-13.915,41.745-50.533V965.258c0-36.618-16.112-50.533-41.745-50.533
			c-25.632,0-41.745,13.915-41.745,50.533V1242.09z"/>
		<path fill="#FFFFFF" d="M921.626,847.348h80.56v439.416h132.558V1360H921.626V847.348z"/>
		<path fill="#FFFFFF" d="M1246.787,847.348v395.475c0,36.618,16.112,49.801,41.744,49.801c25.633,0,41.745-13.183,41.745-49.801
			V847.348h76.165v390.348c0,82.024-41.012,128.896-120.106,128.896c-79.096,0-120.107-46.871-120.107-128.896V847.348H1246.787z"/>
		<path fill="#FFFFFF" d="M1632.006,1211.331l54.927-363.983h112.052V1360h-76.166V992.355L1667.159,1360h-76.166l-60.053-362.519
			V1360h-70.307V847.348h112.051L1632.006,1211.331z"/>
		<path fill="#FFFFFF" d="M2098.51,965.258v18.309c0,52.73-16.112,86.419-51.998,103.263c43.21,16.845,60.054,55.66,60.054,109.854
			v41.744c0,79.096-41.744,121.572-122.304,121.572h-126.698V847.348h121.571C2062.624,847.348,2098.51,886.163,2098.51,965.258z
			 M1938.123,920.584v135.486h31.491c30.026,0,48.336-13.183,48.336-54.195v-28.562c0-36.618-12.45-52.729-41.013-52.729H1938.123z
			 M1938.123,1129.307v157.457h46.139c27.097,0,41.744-12.45,41.744-50.532v-44.675c0-47.604-15.38-62.25-51.997-62.25H1938.123z"/>
		<path fill="#FFFFFF" d="M2154.896,847.348h80.56V1360h-80.56V847.348z"/>
		<path fill="#FFFFFF" d="M2554.755,1360h-81.292l-13.915-93.01h-98.868l-13.915,93.01h-73.969l82.024-512.652h117.91L2554.755,1360
			z M2370.933,1197.416h77.63l-38.814-259.256L2370.933,1197.416z"/>
	</g>
</g>
</svg>
